<?xml version="1.0" encoding="utf-8"?>
<!-- Generator: Adobe Illustrator 24.2.1, SVG Export Plug-In . SVG Version: 6.00 Build 0)  -->
<svg version="1.1" id="Capa_1" xmlns="http://www.w3.org/2000/svg" xmlns:xlink="http://www.w3.org/1999/xlink" x="0px" y="0px"
	 viewBox="0 0 283.46 283.46" style="enable-background:new 0 0 283.46 283.46;" xml:space="preserve">
<style type="text/css">
	.st0{fill:#FFD21F;}
</style>
<g>
	<path id="XMLID_56_" class="st0" d="M72.47,134.41c-2.15-3.96-5.48-7.19-9.52-9.22c-2.98-1.5-6.34-2.34-9.89-2.34
		c-8.37,0-15.67,4.68-19.41,11.57c-1.7,3.13-2.67,6.71-2.67,10.52c0,8.62,4.97,16.1,12.19,19.73c2.98,1.5,6.34,2.34,9.89,2.34
		c3.61,0,7.03-0.87,10.04-2.42c7.14-3.66,12.03-11.1,12.03-19.66C75.14,141.13,74.17,137.54,72.47,134.41z M70.23,134.45
		l-12.31,7.14c-0.96-1.4-2.5-2.36-4.28-2.54v-4.32l9.08-7.45C65.81,128.98,68.4,131.45,70.23,134.45z M57.79,144.93
		c0,2.41-1.81,4.4-4.14,4.69c-0.19,0.03-0.39,0.04-0.59,0.04c-0.2,0-0.4-0.01-0.59-0.04c-2.34-0.29-4.14-2.28-4.14-4.69
		c0-0.61,0.11-1.19,0.32-1.72c0.14-0.37,0.33-0.72,0.56-1.03c0.75-1.05,1.92-1.78,3.26-1.94c0.19-0.03,0.39-0.04,0.59-0.04
		c0.2,0,0.4,0.01,0.59,0.04c1.34,0.16,2.51,0.9,3.26,1.95c0.23,0.32,0.41,0.66,0.56,1.03C57.67,143.74,57.79,144.32,57.79,144.93z
		 M53.65,133.22v-8.4c2.83,0.08,5.51,0.75,7.94,1.89L53.65,133.22z M52.47,124.82v8.4l-7.94-6.52
		C46.95,125.56,49.64,124.9,52.47,124.82z M43.39,127.29l9.08,7.45v4.32c-1.77,0.17-3.32,1.14-4.28,2.54l-12.3-7.14
		C37.72,131.46,40.31,128.98,43.39,127.29z M32.93,144.93c0-3.42,0.86-6.64,2.37-9.46l12.32,7.15c-0.31,0.71-0.47,1.49-0.47,2.31
		c0,3.05,2.34,5.58,5.32,5.87v4.32l-9.08,7.46C37.16,159.14,32.93,152.52,32.93,144.93z M52.47,156.64v8.4
		c-2.83-0.08-5.52-0.75-7.94-1.89L52.47,156.64z M53.65,165.04v-8.4l7.94,6.51C59.16,164.29,56.47,164.96,53.65,165.04z
		 M62.73,162.57l-9.08-7.45v-4.32c2.98-0.29,5.31-2.82,5.31-5.87c0-0.82-0.17-1.6-0.47-2.31l12.32-7.15
		c1.51,2.82,2.37,6.04,2.37,9.46C73.18,152.52,68.95,159.14,62.73,162.57z"/>
	<circle id="XMLID_54_" class="st0" cx="53.06" cy="144.93" r="1.22"/>
</g>
<g>
	<rect x="217.14" y="131.49" class="st0" width="2.95" height="27.11"/>
	<path class="st0" d="M126.24,131.37c-7.35,0-13.34,6.1-13.34,13.58c0,7.46,5.99,13.54,13.34,13.54c7.35,0,13.34-6.1,13.34-13.58
		C139.58,137.45,133.59,131.37,126.24,131.37z M129.31,154.9c-0.34,0.11-0.7,0.2-1.04,0.27c-0.32,0.09-0.63,0.14-0.97,0.16
		c-0.34,0.05-0.7,0.07-1.06,0.07c-1.06,0-2.08-0.16-3.05-0.47c-0.63-0.2-1.27-0.45-1.85-0.79c-3.3-1.74-5.54-5.2-5.54-9.2
		c0-4.7,3.12-8.68,7.37-9.97c0.34-0.11,0.7-0.2,1.04-0.27c0.32-0.09,0.63-0.14,0.97-0.16c0.34-0.05,0.7-0.07,1.06-0.07
		c1.06,0,2.1,0.16,3.05,0.47c0.63,0.2,1.27,0.45,1.85,0.79c3.3,1.74,5.54,5.2,5.54,9.2C136.68,149.63,133.56,153.61,129.31,154.9z"
		/>
	<polygon class="st0" points="145.02,155.51 145.02,145.02 145.02,140.68 145.02,131.48 141.88,131.48 141.88,158.6 159.85,158.6 
		159.85,155.51 155.76,155.51 	"/>
	<path class="st0" d="M171.46,131.48h-8.43v27.12l8.43-0.05c7.41-0.02,13.45-6.06,13.45-13.52S178.87,131.48,171.46,131.48z
		 M180.73,149.81c0,0.47-1.83,2.53-1.83,2.53c-2.26,2.1-4.72,3.14-7.44,3.14l-5.31,0.05v-15.82v-4.32v-0.81h5.31
		c5.72,0,10.35,4.72,10.35,10.47C181.81,146.44,181.52,147.78,180.73,149.81z"/>
	<path class="st0" d="M243.31,141.7c0-5.63-4.63-10.22-10.37-10.22h-9.52v1.13v2.28v13.99v3.07v6.65h3.1v-6.65h7.87l4.32,6.65h3.68
		l-4.95-7.69C241.16,148.93,243.31,145.56,243.31,141.7z M235.03,148.52c-0.63,0.16-1.63,0.36-2.6,0.36h-5.92v-9.15v-0.02v-5.13
		h0.36h6.06c4,0,7.26,3.16,7.26,7.12c0,2.8-1.63,5.22-4.45,6.62C235.73,148.32,235.46,148.41,235.03,148.52z"/>
	<polygon class="st0" points="201.17,140.11 192.52,131.48 189.1,131.48 189.1,158.6 192.18,158.6 192.18,153.38 192.18,149.04 
		192.18,135.5 199.03,142.28 201.17,144.45 203.34,142.28 210.19,135.5 210.19,149.04 210.19,153.38 210.19,158.6 213.24,158.6 
		213.24,131.48 209.85,131.48 	"/>
	<rect x="115.8" y="126.4" class="st0" width="2.95" height="2.95"/>
	<rect x="133.73" y="126.4" class="st0" width="2.95" height="2.95"/>
	<path class="st0" d="M101.04,145.63h-2.35v3.07h1.72h0.63v0l6.42-0.02c-0.86,1.9-1.58,2.87-2.46,3.75
		c-0.14,0.16-0.29,0.29-0.45,0.41c-0.79,0.72-1.67,1.31-2.6,1.7c-0.43,0.23-0.84,0.38-1.27,0.52c-0.2,0.07-0.41,0.11-0.59,0.16
		c-0.57,0.16-1.06,0.23-1.54,0.27c-0.68,0.07-1.36,0.07-2.03,0c-0.34-0.02-0.7-0.09-1.04-0.16c-0.34-0.07-0.68-0.16-1.02-0.27
		c-0.34-0.07-0.66-0.2-0.95-0.34c-1.24-0.5-2.4-1.24-3.39-2.24c-1.51-1.51-2.46-3.39-2.85-5.33c-0.02-0.02-0.02-0.07-0.02-0.09
		c-0.25-1.33-0.25-2.69,0-4.02c0-0.07,0.02-0.11,0.05-0.18c0.18-0.93,0.52-1.85,0.97-2.71c0.02-0.05,0.02-0.07,0.07-0.11
		c0.45-0.88,1.06-1.7,1.81-2.44c0.23-0.23,0.47-0.45,0.75-0.66c0,0,0-0.02,0.02,0c0.25-0.25,0.52-0.45,0.81-0.61
		c0.81-0.59,1.72-0.99,2.64-1.29c0.05-0.02,0.11-0.05,0.16-0.05c0.97-0.29,2.01-0.45,3.07-0.45c1.97,0,3.77,0.54,5.36,1.45
		l2.21-2.19c-2.17-1.47-4.79-2.31-7.57-2.31c-0.9,0-1.79,0.09-2.62,0.25c-0.5,0.09-0.97,0.23-1.42,0.36
		c-0.86,0.27-1.67,0.61-2.44,1.02c-0.7,0.38-1.36,0.84-1.99,1.33c-0.14,0.09-0.25,0.18-0.36,0.29c-0.27,0.23-0.52,0.47-0.77,0.72
		c-0.34,0.32-0.66,0.66-0.93,1.02c-0.29,0.36-0.57,0.72-0.81,1.11c-0.32,0.47-0.61,0.97-0.84,1.47c-0.16,0.29-0.29,0.59-0.43,0.9
		c-0.16,0.41-0.29,0.81-0.43,1.24c-0.02,0.02-0.02,0.07-0.02,0.09c-0.11,0.38-0.23,0.79-0.29,1.18c-0.09,0.45-0.14,0.88-0.18,1.31
		c-0.23,2.26,0.14,4.54,1.04,6.65c0.28,0.64,0.62,1.24,0.99,1.83c0.13,0.21,0.26,0.42,0.41,0.63c0.34,0.48,0.72,0.93,1.12,1.36
		c0.12,0.13,0.21,0.28,0.33,0.41c1.63,1.63,3.55,2.74,5.61,3.35c0.43,0.14,0.86,0.25,1.31,0.34c0.02,0.02,0.05,0.02,0.07,0.02
		c0.41,0.07,0.84,0.14,1.29,0.18c0.45,0.05,0.93,0.07,1.38,0.07c0.41,0,0.79-0.02,1.2-0.07c0.25-0.02,0.5-0.05,0.75-0.09
		c0.2-0.02,0.38-0.07,0.59-0.09c0.47-0.09,0.95-0.23,1.42-0.36c0.36-0.11,0.7-0.23,1.04-0.36c0.02-0.02,0.05-0.02,0.05-0.02
		c0.43-0.18,0.81-0.36,1.22-0.57c0.07-0.05,0.16-0.09,0.23-0.14c0.09-0.05,0.18-0.09,0.25-0.16c1.02-0.57,1.97-1.29,2.83-2.15
		c1.61-1.58,2.92-3.91,3.35-5.52c0,0,0.38-1.38,0.45-3.46h-1.85H101.04z"/>
</g>
</svg>
